<svg xmlns="http://www.w3.org/2000/svg" width="25.519" height="26" viewBox="0 0 25.519 26">
  <g id="Group_5250" data-name="Group 5250" transform="translate(-36.354 131)">
    <g id="Path_4" data-name="Path 4" transform="translate(37.354 -165.614)" fill="#fff">
      <path d="M 1.174624443054199 53.88832855224609 L 0.9417043924331665 53.44766616821289 C -0.001465600682422519 51.66325759887695 -0.4999955892562866 49.64623641967773 -0.4999955892562866 47.61466598510742 C -0.4999955892562866 44.9999885559082 0.2988944053649902 42.49586868286133 1.810304403305054 40.37300872802734 L 2.10073447227478 39.9650764465332 L 2.508224487304688 40.25612640380859 L 6.203694343566895 42.89562606811523 L 6.604964256286621 43.18222808837891 L 6.323954582214355 43.58743667602539 C 5.528484344482422 44.73445892333984 5.094134330749512 46.08114624023438 5.067854404449463 47.48189544677734 C 5.045814514160156 48.65971755981445 5.319084167480469 49.83112716674805 5.858114242553711 50.86945724487305 L 6.087504386901855 51.31133651733398 L 5.646604537963867 51.54260635375977 L 1.616014361381531 53.65679550170898 L 1.174624443054199 53.88832855224609 Z" stroke="none"/>
      <path d="M 2.217614412307739 40.66299819946289 C 0.8211941719055176 42.62434768676758 4.291534423828125e-06 45.02359771728516 4.291534423828125e-06 47.61466598510742 C 4.291534423828125e-06 49.63697814941406 0.5002346038818359 51.54245758056641 1.383754253387451 53.21401596069336 L 5.414344310760498 51.09982681274414 C 4.851524353027344 50.01566696166992 4.543484687805176 48.77966690063477 4.567944526672363 47.47251892089844 C 4.596994400024414 45.92411804199219 5.089664459228516 44.48983764648438 5.913084506988525 43.30249786376953 L 2.217614412307739 40.66299819946289 M 1.983854293823242 39.26714706420898 L 7.296834468841553 43.06195831298828 L 6.734814643859863 43.87236785888672 C 5.995754241943359 44.93807601928711 5.592194557189941 46.18947601318359 5.567764282226562 47.49127578735352 C 5.547284603118896 48.58598709106445 5.801134586334229 49.67449569702148 6.301874160766602 50.63908767700195 L 6.760664463043213 51.52284622192383 L 0.965484619140625 54.56263732910156 L 0.4996542930603027 53.68131637573242 C -0.4814257621765137 51.82517623901367 -0.9999957084655762 49.72736740112305 -0.9999957084655762 47.61466598510742 C -0.9999957084655762 44.89543533325195 -0.1690554618835449 42.29103851318359 1.402984619140625 40.0830078125 L 1.983854293823242 39.26714706420898 Z" stroke="none" fill="#3f9af5"/>
    </g>
    <g id="Path_5" data-name="Path 5" transform="translate(21.712 -130)" fill="#fff">
      <path d="M 21.67744255065918 8.390105247497559 L 21.26485252380371 8.095405578613281 L 17.56938362121582 5.455775260925293 L 17.16315269470215 5.165605068206787 L 17.45268249511719 4.758924961090088 C 18.58549308776855 3.167715072631836 20.09568405151367 1.846105098724365 21.81997299194336 0.9369651079177856 C 23.60082244873047 -0.001993547426536679 25.61300659179688 -0.4984901249408722 27.63932800292969 -0.4989142119884491 C 27.68667411804199 -0.4994772374629974 27.73374366760254 -0.4997548758983612 27.78105354309082 -0.4997548758983612 C 30.85796356201172 -0.4997548758983612 33.78520202636719 0.6631151437759399 36.02356338500977 2.774635076522827 L 36.40489196777344 3.134355068206787 L 36.02754211425781 3.498255014419556 L 32.77370452880859 6.636125087738037 L 32.42970275878906 6.967864990234375 L 32.0827522277832 6.639194965362549 C 30.91609382629395 5.533975124359131 29.3885326385498 4.925304889678955 27.78147315979004 4.925304889678955 C 27.73849296569824 4.925304889678955 27.69539260864258 4.925755023956299 27.6523323059082 4.926635265350342 C 25.38491249084473 4.96935510635376 23.25965309143066 6.108345031738281 21.96635246276855 7.973444938659668 L 21.67744255065918 8.390105247497559 Z" stroke="none"/>
      <path d="M 21.55547332763672 7.688535213470459 C 22.89751243591309 5.753135204315186 25.11823272705078 4.474295139312744 27.64202308654785 4.426744937896729 C 29.41803359985352 4.390126705169678 31.13698387145996 5.054495811462402 32.4266242980957 6.276215076446533 L 35.68046188354492 3.138345003128052 C 33.50904083251953 1.089964628219604 30.6268482208252 -0.03492432087659836 27.64202308654785 0.001085114781744778 C 23.60597229003906 0.001085114781744778 20.03514289855957 1.993595123291016 17.8600025177002 5.048904895782471 L 21.55547332763672 7.688535213470459 M 21.79940223693848 9.0916748046875 L 16.4663028717041 5.282305240631104 L 17.04536247253418 4.468945026397705 C 18.2232837677002 2.814375162124634 19.7936840057373 1.440095067024231 21.58677291870117 0.4946750998497009 C 23.43818283081055 -0.4814806878566742 25.52976036071777 -0.9979056119918823 27.63582229614258 -0.9989133477210999 C 30.89154815673828 -1.036721348762512 33.99987411499023 0.1782437860965729 36.36666488647461 2.410935163497925 L 37.12931442260742 3.130375146865845 L 32.43277359008789 7.659524917602539 L 31.73889350891113 7.002175331115723 C 30.63677978515625 5.958115100860596 29.18346786499023 5.395040512084961 27.66266250610352 5.426535129547119 C 25.55446243286133 5.466255187988281 23.57927322387695 6.52486515045166 22.37724304199219 8.258364677429199 L 21.79940223693848 9.0916748046875 Z" stroke="none" fill="#3f9af5"/>
    </g>
    <g id="Path_6" data-name="Path 6" transform="translate(-47.293 -202.553)" fill="#fff">
      <path d="M 104.0967483520508 94.73929595947266 L 103.7791748046875 94.34975433349609 L 100.9484710693359 90.87763977050781 L 100.6374816894531 90.49618530273438 L 101.0139770507812 90.17920684814453 C 101.9939270019531 89.35417175292969 102.5652160644531 88.31192016601562 102.8249206542969 87.453125 L 96.64700317382812 87.453125 L 96.14700317382812 87.453125 L 96.14700317382812 86.953125 L 96.14700317382812 82.83798980712891 L 96.14700317382812 82.33795928955078 L 96.64703369140625 82.33798980712891 L 107.9773178100586 82.33861541748047 L 108.3918075561523 82.33863830566406 L 108.4686279296875 82.74594879150391 C 108.5976715087891 83.43023681640625 108.6642913818359 84.12992858886719 108.666633605957 84.82558441162109 C 108.666633605957 88.79119873046875 107.1814422607422 92.19786071777344 104.4846420288086 94.41971588134766 L 104.0967483520508 94.73929595947266 Z" stroke="none"/>
      <path d="M 104.1667022705078 94.03382110595703 C 106.6969528198242 91.94918060302734 108.166633605957 88.70700836181641 108.166633605957 84.8272705078125 C 108.1643981933594 84.15991973876953 108.100944519043 83.49430084228516 107.9772872924805 82.83861541748047 L 96.64700317382812 82.83798980712891 L 96.64700317382812 86.953125 L 103.4528045654297 86.953125 C 103.2993316650391 87.93708801269531 102.6782913208008 89.43159484863281 101.3360061645508 90.56169891357422 L 104.1667022705078 94.03382110595703 M 104.0267944335938 95.44477081298828 L 99.93896484375 90.4306640625 L 100.6919555664062 89.79671478271484 C 101.3494338989258 89.24317932128906 101.8065643310547 88.57338714599609 102.0958251953125 87.953125 L 95.64700317382812 87.953125 L 95.64700317382812 81.83792877197266 L 108.8063278198242 81.83866882324219 L 108.9599609375 82.65328979492188 C 109.0946578979492 83.36748504638672 109.164192199707 84.09780120849609 109.1666259765625 84.82390594482422 C 109.166633605957 88.94332122802734 107.6167831420898 92.48703002929688 104.8025741577148 94.80561065673828 L 104.0267944335938 95.44477081298828 Z" stroke="none" fill="#3f9af5"/>
    </g>
    <g id="Path_7" data-name="Path 7" transform="translate(27.593 -239.238)" fill="#fff">
      <path d="M 21.76086807250977 133.7374725341797 C 17.11355781555176 133.7374725341797 12.87640857696533 131.1830139160156 10.70294857025146 127.0709533691406 L 10.46856880187988 126.6275100708008 L 10.91273880004883 126.3945236206055 L 14.94332885742188 124.2802276611328 L 15.38797855377197 124.0469818115234 L 15.61934852600098 124.4926223754883 C 16.81636810302734 126.7981948852539 19.171142578125 128.26123046875 21.76553535461426 128.3116912841797 C 23.5200023651123 128.310791015625 24.98774337768555 127.8237075805664 26.12771797180176 126.8639297485352 L 26.51629829406738 126.5367736816406 L 26.83727836608887 126.9304809570312 L 29.66798782348633 130.4025726318359 L 29.98230934143066 130.7881164550781 L 29.59839820861816 131.1044158935547 C 27.50763893127441 132.8269653320312 24.7974681854248 133.7374725341797 21.76086807250977 133.7374725341797 Z" stroke="none"/>
      <path d="M 15.17558860778809 124.7230072021484 L 11.14499855041504 126.8373107910156 C 13.15687942504883 130.6436614990234 17.15592765808105 133.2374725341797 21.76086807250977 133.2374725341797 C 24.76912879943848 133.2374725341797 27.33748817443848 132.3193206787109 29.28045845031738 130.7185211181641 L 26.44974899291992 127.2464294433594 C 25.38383865356445 128.1438446044922 23.86313819885254 128.8116912841797 21.76086807250977 128.8116912841797 C 18.88509941101074 128.7576751708984 16.41382789611816 127.1079711914062 15.17558860778809 124.7230072021484 M 15.60036849975586 123.3709564208984 L 16.0630989074707 124.2622222900391 C 17.17490196228027 126.4036560058594 19.36101150512695 127.7630615234375 21.77020645141602 127.8116912841797 C 23.4016056060791 127.8099975585938 24.75926208496094 127.3624572753906 25.80569839477539 126.4814453125 L 26.58285903930664 125.8271331787109 L 30.68415832519531 130.8577117919922 L 29.91632843017578 131.4903106689453 C 27.73497772216797 133.2875213623047 24.91485977172852 134.2374725341797 21.76086807250977 134.2374725341797 C 16.9277286529541 134.2374725341797 12.52119827270508 131.5809478759766 10.26089859008789 127.3046112060547 L 9.792139053344727 126.4177398681641 L 15.60036849975586 123.3709564208984 Z" stroke="none" fill="#3f9af5"/>
    </g>
  </g>
</svg>
