<svg xmlns="http://www.w3.org/2000/svg" width="498.575" height="130.4" viewBox="0 0 498.575 130.4">
  <g id="Logo_Full_Dark" transform="translate(-0.325)">
    <path id="Path_16225" data-name="Path 16225" d="M128.6,66.7c-3.5-2.1-9.3-1.7-12.1,1.4a51.419,51.419,0,0,1-51.3,48.5c-27.4,0-51.4-23-51.4-51.4a51.373,51.373,0,0,1,100-16.6,30.165,30.165,0,0,1,9.6-1.5,34.4,34.4,0,0,1,4.6.3A65.45,65.45,0,0,0,65.2,0c-86.5,3.4-86.5,127,0,130.4,36,0,63.6-27.7,65.1-62.4A10.917,10.917,0,0,0,128.6,66.7Z" fill="#3f9af7"/>
    <path id="Path_16226" data-name="Path 16226" d="M83.3,47.4l9.5-9.5c-7.4-7-15.9-10.5-26.8-10.4A36.529,36.529,0,0,0,31.8,50.1c-10,24.6,7.3,51.6,34.3,51.5A38.081,38.081,0,0,0,93.2,91.1l-9.5-9.5c-4.6,4.9-10.5,7.2-17.7,7.1A21.558,21.558,0,0,1,44.9,74.5c-3.1-8.8-1.9-20.6,4.8-27.4C58.1,38.1,75.2,38.3,83.3,47.4Z" fill="#0b163e"/>
    <path id="Path_16227" data-name="Path 16227" d="M206.9,62.7c-6.1-12.5-24.6-17.2-34.9-7.2V51.1H158.6v70.2h13.3v-25a19.8,19.8,0,0,0,14.1,5.3C206.2,101.6,215.3,79.3,206.9,62.7Zm-12.4,20a11.547,11.547,0,0,1-10.8,6.5c-13.5.3-16.9-18.6-6.4-25.1a13.109,13.109,0,0,1,13,.2C196.2,67.9,197.6,76.8,194.5,82.7Z" fill="#0b163e"/>
    <path id="Path_16228" data-name="Path 16228" d="M249.7,51.1,237.9,82.5,226.7,51.1H212l18.8,45.2-11.9,25.1h14.4c5.8-13.3,25-56.6,31.1-70.3Z" fill="#0b163e"/>
    <path id="Path_16229" data-name="Path 16229" d="M269.8,100.6v-74h13.4v74Z" fill="#0b163e"/>
    <path id="Path_16230" data-name="Path 16230" d="M339,62c-8.8-16.7-34.9-15.4-43.8.6a25.208,25.208,0,0,0-3.4,13.2c-.2,15.1,12.2,26.1,27,25.9,7.8,0,15-2.6,20.1-8.6l-8-8c-4.5,5.6-13.5,6.4-19.6,3.4a12.424,12.424,0,0,1-5.9-7.9l36.1-.1A27.248,27.248,0,0,0,339,62Zm-28.1,1c5.7-3.2,14.4-2.2,17.3,4.3a13.338,13.338,0,0,1,1.1,3.2l-23.9.1A11.946,11.946,0,0,1,310.9,63Z" fill="#0b163e"/>
    <path id="Path_16231" data-name="Path 16231" d="M385.4,51.1v4.7c-6.5-7-18.7-7.5-26.4-2.4-20,12.6-13.1,48,12.1,48.1,5.5,0,10.6-1.7,14.4-5.6v4.6H399V51.1Zm-2.7,34.3a11.916,11.916,0,0,1-9.1,3.8A12.618,12.618,0,0,1,361,75.6c-.2-10.4,10.3-16.5,19.1-11.4C386.8,68.4,388.1,79.8,382.7,85.4Z" fill="#0b163e"/>
    <path id="Path_16232" data-name="Path 16232" d="M458.4,100.6,438,74.7l19.5-23.6H441.9L424,73.8V26.6H410.6v74H424V76.5l18,24.1Z" fill="#0b163e"/>
    <path id="Path_16233" data-name="Path 16233" d="M478.9,101.7c-8.1,0-16.3-3.1-21.5-9.3l8.1-8.1c3.3,4,7.9,5.8,13.2,5.8a9.6,9.6,0,0,0,5-1,3.267,3.267,0,0,0-.1-5.8c-6.7-3.6-16.8-3.2-21.4-10.5-2.6-4-2.4-11.5.6-15.6a15.063,15.063,0,0,1,6.7-5.4c9.4-3.9,23.2-2.1,29.4,6.6l-8.1,8.2c-3.5-4.5-10.8-6.6-15.7-4.3a3.1,3.1,0,0,0,.2,5.4,27.6,27.6,0,0,0,4.6,1.8c3.8,1.2,8.4,2.3,11.9,4.5a13.013,13.013,0,0,1,6.4,12c0,10.7-8.8,15.8-19.3,15.7Z" fill="#0b163e"/>
    <path id="Path_16234" data-name="Path 16234" d="M100.4,62.6c-4.6,7.6-4.7,18.7.2,26.3a25.038,25.038,0,0,0,4,5.1,19.871,19.871,0,0,0,2,1.6,52.424,52.424,0,0,0,6.6-12.1,12.755,12.755,0,0,1-2.1-6.1,15.484,15.484,0,0,1,0-4.3,10.457,10.457,0,0,1,1.5-4.4c5.5-9.8,20.2-7.7,23.1,2.9a10.323,10.323,0,0,1,.4,3c.2,3.5,0,5.2-1.5,8.2a11.319,11.319,0,0,1-4.6,4.6,15.863,15.863,0,0,1-4.1,1.6,60.58,60.58,0,0,1-6.4,12.4h.2c16.6,1.8,30.3-9.8,30.2-26.5C149.7,48.5,113.6,40.7,100.4,62.6Z" fill="#0b163e"/>
  </g>
</svg>
