<svg width="19" height="18" viewBox="0 0 19 18" fill="none" xmlns="http://www.w3.org/2000/svg">
<g id="icons" clip-path="url(#clip0_479_299)">
<path id="Vector" d="M16.4673 4.41472L8.9673 11.9147C8.6748 12.2072 8.2023 12.2072 7.9098 11.9147L5.7873 9.79222C5.4948 9.49972 5.4948 9.02722 5.7873 8.73472C6.0798 8.44222 6.5523 8.44222 6.8448 8.73472L8.4348 10.3247L15.4023 3.35722C15.6948 3.06472 16.1673 3.06472 16.4598 3.35722C16.7598 3.64972 16.7598 4.12222 16.4673 4.41472ZM12.3273 2.05222C11.0598 1.53472 9.6198 1.35472 8.1198 1.62472C5.0673 2.17222 2.6298 4.63222 2.1123 7.68472C1.2573 12.7472 5.4723 17.0822 10.5048 16.4297C13.4748 16.0472 15.9648 13.8347 16.7448 10.9472C17.0448 9.84472 17.0748 8.77972 16.9023 7.78222C16.8048 7.18222 16.0623 6.94972 15.6273 7.37722C15.4548 7.54972 15.3798 7.80472 15.4248 8.04472C15.5898 9.04222 15.5148 10.1072 15.0348 11.2397C14.1648 13.2722 12.2748 14.7647 10.0773 14.9672C6.2523 15.3197 3.0798 12.0797 3.5523 8.23222C3.8748 5.57722 6.0123 3.41722 8.6598 3.04972C9.9573 2.86972 11.1873 3.11722 12.2373 3.65722C12.5298 3.80722 12.8823 3.75472 13.1148 3.52222C13.4748 3.16222 13.3848 2.55472 12.9348 2.32222C12.7323 2.23222 12.5298 2.13472 12.3273 2.05222Z" fill="#9DA9BF"/>
</g>
<defs>
<clipPath id="clip0_479_299">
<rect width="18" height="18" fill="white" transform="translate(0.5)"/>
</clipPath>
</defs>
</svg>
