<svg width="23" height="16" viewBox="0 0 23 16" fill="none" xmlns="http://www.w3.org/2000/svg">
<path id="Union" fill-rule="evenodd" clip-rule="evenodd" d="M12.509 3.6355C13.0219 3.27341 13.3569 2.67607 13.3569 2.00049C13.3569 0.895919 12.4615 0.000488281 11.3569 0.000488281C10.2523 0.000488281 9.35691 0.895919 9.35691 2.00049C9.35691 2.69982 9.71584 3.31531 10.2595 3.67281C9.20062 5.34691 7.75691 7.8147 7.75691 8.8253C7.19374 7.46927 5.63809 6.58355 4.34035 6.05856C4.5322 5.75158 4.64307 5.3888 4.64307 5.00012C4.64307 3.89555 3.74764 3.00012 2.64307 3.00012C1.5385 3.00012 0.643066 3.89555 0.643066 5.00012C0.643066 6.10469 1.5385 7.00012 2.64307 7.00012C2.66957 7.00012 2.69595 6.99961 2.72221 6.99858L4.35691 13.9995H18.3569L19.9988 6.96802C20.115 6.98903 20.2347 7 20.3569 7C21.4615 7 22.3569 6.10457 22.3569 5C22.3569 3.89543 21.4615 3 20.3569 3C19.2523 3 18.3569 3.89543 18.3569 5C18.3569 5.35977 18.4519 5.69736 18.6182 5.98904C17.3317 6.50383 15.6936 7.40749 15.0377 8.8253C15.0377 7.62255 13.5887 5.24225 12.509 3.6355ZM4.42868 15.9995C4.38116 15.6702 4.35691 15.3361 4.35691 14.9995H11.3569H18.3569C18.3569 15.3361 18.3327 15.6702 18.2851 15.9995H4.42868Z" fill="#FBFFFF"/>
</svg>
