<svg width="25" height="24" viewBox="0 0 25 24" fill="none" xmlns="http://www.w3.org/2000/svg">
<g id="icons">
<path id="Path 17" d="M18.5 8H17.5V6C17.5 4.67392 16.9732 3.40215 16.0355 2.46447C15.0979 1.52678 13.8261 1 12.5 1C11.1739 1 9.90215 1.52678 8.96447 2.46447C8.02678 3.40215 7.5 4.67392 7.5 6V8H6.5C5.97005 8.00158 5.46227 8.2128 5.08753 8.58753C4.7128 8.96227 4.50158 9.47005 4.5 10V20C4.50158 20.5299 4.7128 21.0377 5.08753 21.4125C5.46227 21.7872 5.97005 21.9984 6.5 22H18.5C19.0299 21.9984 19.5377 21.7872 19.9125 21.4125C20.2872 21.0377 20.4984 20.5299 20.5 20V10C20.4984 9.47005 20.2872 8.96227 19.9125 8.58753C19.5377 8.2128 19.0299 8.00158 18.5 8ZM12.5 17C12.1044 17 11.7178 16.8827 11.3889 16.6629C11.06 16.4432 10.8036 16.1308 10.6522 15.7654C10.5009 15.3999 10.4613 14.9978 10.5384 14.6098C10.6156 14.2219 10.8061 13.8655 11.0858 13.5858C11.3655 13.3061 11.7219 13.1156 12.1098 13.0384C12.4978 12.9613 12.8999 13.0009 13.2654 13.1522C13.6308 13.3036 13.9432 13.56 14.1629 13.8889C14.3827 14.2178 14.5 14.6044 14.5 15C14.4984 15.5299 14.2872 16.0377 13.9125 16.4125C13.5377 16.7872 13.0299 16.9984 12.5 17ZM15.6 8H9.4V6C9.4 5.17783 9.72661 4.38933 10.308 3.80797C10.8893 3.22661 11.6778 2.9 12.5 2.9C13.3222 2.9 14.1107 3.22661 14.692 3.80797C15.2734 4.38933 15.6 5.17783 15.6 6V8Z" fill="#052D8B"/>
</g>
</svg>
