<svg width="25" height="25" viewBox="0 0 25 25" fill="none" xmlns="http://www.w3.org/2000/svg">
<g id="icons" clip-path="url(#clip0_30363_514)">
<path id="Vector" d="M18.6719 8.68008C17.1712 8.22988 15.6255 8.65007 14.6276 9.64802L12.5041 11.5314L11.3636 12.5368H11.3711L9.35266 14.3301C8.74488 14.9379 7.88949 15.193 7.0116 15.0205C6.07367 14.8329 5.30082 14.0825 5.08322 13.1521C4.69304 11.4789 5.95361 10.0007 7.55184 10.0007C8.23465 10.0007 8.87244 10.2633 9.38267 10.7735L9.73533 11.0812C10.0205 11.3363 10.4482 11.3363 10.7333 11.0812C11.0709 10.781 11.0709 10.2558 10.7333 9.95566L10.4181 9.68554C9.65279 8.92019 8.63233 8.5 7.55184 8.5C5.31582 8.5 3.5 10.3158 3.5 12.5368C3.5 14.7578 5.31582 16.5737 7.55184 16.5737C8.63233 16.5737 9.65279 16.1535 10.3806 15.4256L12.5041 13.5498L12.5116 13.5573L13.6446 12.5368H13.6371L15.6555 10.7435C16.2633 10.1357 17.1187 9.88063 17.9966 10.0532C18.9345 10.2408 19.7074 10.9911 19.925 11.9216C20.3151 13.5948 19.0546 15.073 17.4563 15.073C16.781 15.073 16.1357 14.8104 15.6255 14.3001L15.2653 13.985C14.9802 13.7299 14.5525 13.7299 14.2674 13.985C13.9297 14.2851 13.9297 14.8104 14.2674 15.1105L14.5825 15.3881C15.3479 16.146 16.3608 16.5662 17.4488 16.5662C19.9025 16.5662 21.8458 14.3902 21.4482 11.8765C21.2231 10.3834 20.12 9.10778 18.6719 8.68008Z" fill="#FBFFFF"/>
</g>
<defs>
<clipPath id="clip0_30363_514">
<rect width="24" height="24" fill="white" transform="translate(0.5 0.5)"/>
</clipPath>
</defs>
</svg>
